<svg width="21" height="23" viewBox="0 0 21 23" fill="none" xmlns="http://www.w3.org/2000/svg">
<rect width="21" height="23" rx="5" fill="#0086F3"/>
<path d="M7.93786 7.27273V16H6.09268V9.02415H6.04155L4.04297 10.277V8.64062L6.20348 7.27273H7.93786ZM13.4339 16.1918C12.701 16.1889 12.0703 16.0085 11.5419 15.6506C11.0163 15.2926 10.6115 14.7741 10.3274 14.0952C10.0462 13.4162 9.90696 12.5994 9.9098 11.6449C9.9098 10.6932 10.0504 9.8821 10.3317 9.21165C10.6158 8.54119 11.0206 8.03125 11.5462 7.68182C12.0746 7.32955 12.7038 7.15341 13.4339 7.15341C14.1641 7.15341 14.7919 7.32955 15.3175 7.68182C15.8459 8.03409 16.2521 8.54545 16.5362 9.21591C16.8203 9.88352 16.9609 10.6932 16.9581 11.6449C16.9581 12.6023 16.8161 13.4205 16.532 14.0994C16.2507 14.7784 15.8473 15.2969 15.3217 15.6548C14.7962 16.0128 14.1669 16.1918 13.4339 16.1918ZM13.4339 14.6619C13.9339 14.6619 14.3331 14.4105 14.6314 13.9077C14.9297 13.4048 15.0774 12.6506 15.0746 11.6449C15.0746 10.983 15.0064 10.4318 14.87 9.99148C14.7365 9.55114 14.5462 9.22017 14.299 8.99858C14.0547 8.77699 13.7663 8.66619 13.4339 8.66619C12.9368 8.66619 12.5391 8.91477 12.2408 9.41193C11.9425 9.90909 11.7919 10.6534 11.7891 11.6449C11.7891 12.3153 11.8558 12.875 11.9893 13.3239C12.1257 13.7699 12.3175 14.1051 12.5646 14.3295C12.8118 14.5511 13.1016 14.6619 13.4339 14.6619Z" fill="white"/>
</svg>
