<svg width="21" height="24" viewBox="0 0 21 24" fill="none" xmlns="http://www.w3.org/2000/svg">
<rect y="0.5" width="21" height="23" rx="5" fill="#FF0000"/>
<path d="M8.10778 7.77273V16.5H6.26261V9.52415H6.21147L4.21289 10.777V9.14062L6.3734 7.77273H8.10778ZM13.5314 16.6193C13.0826 16.6165 12.6493 16.5412 12.2317 16.3935C11.8169 16.2457 11.4448 16.0057 11.1152 15.6733C10.7857 15.3409 10.5243 14.9006 10.3311 14.3523C10.1408 13.804 10.0456 13.1307 10.0456 12.3324C10.0485 11.5994 10.1323 10.9446 10.2971 10.3679C10.4647 9.78835 10.7033 9.29687 11.013 8.89347C11.3255 8.49006 11.699 8.18324 12.1337 7.97301C12.5684 7.75994 13.0556 7.65341 13.5953 7.65341C14.1777 7.65341 14.6919 7.76705 15.138 7.99432C15.584 8.21875 15.9419 8.52415 16.2118 8.91051C16.4846 9.29688 16.6493 9.73011 16.7061 10.2102H14.8865C14.8155 9.90625 14.6664 9.66761 14.4391 9.49432C14.2118 9.32102 13.9306 9.23438 13.5953 9.23438C13.0272 9.23438 12.5953 9.48153 12.2999 9.97585C12.0073 10.4702 11.8581 11.142 11.8525 11.9915H11.9121C12.0428 11.733 12.2189 11.5128 12.4405 11.331C12.665 11.1463 12.9192 11.0057 13.2033 10.9091C13.4902 10.8097 13.7928 10.7599 14.111 10.7599C14.628 10.7599 15.0882 10.8821 15.4917 11.1264C15.8951 11.3679 16.2132 11.7003 16.4462 12.1236C16.6792 12.5469 16.7956 13.0312 16.7956 13.5767C16.7956 14.1676 16.6578 14.6932 16.3823 15.1534C16.1096 15.6136 15.7275 15.9744 15.236 16.2358C14.7473 16.4943 14.1792 16.6222 13.5314 16.6193ZM13.5229 15.1705C13.807 15.1705 14.0613 15.1023 14.2857 14.9659C14.5101 14.8295 14.6863 14.6449 14.8141 14.4119C14.9419 14.179 15.0059 13.9176 15.0059 13.6278C15.0059 13.3381 14.9419 13.0781 14.8141 12.848C14.6891 12.6179 14.5158 12.4347 14.2942 12.2983C14.0726 12.1619 13.8198 12.0938 13.5357 12.0938C13.3226 12.0938 13.1252 12.1335 12.9434 12.2131C12.7644 12.2926 12.6067 12.4034 12.4703 12.5455C12.3368 12.6875 12.2317 12.8523 12.155 13.0398C12.0783 13.2244 12.04 13.4219 12.04 13.6321C12.04 13.9134 12.1039 14.1705 12.2317 14.4034C12.3624 14.6364 12.5385 14.8224 12.7601 14.9616C12.9846 15.1009 13.2388 15.1705 13.5229 15.1705Z" fill="white"/>
</svg>
