<svg width="21" height="23" viewBox="0 0 21 23" fill="none" xmlns="http://www.w3.org/2000/svg">
<rect width="21" height="23" rx="5" fill="black"/>
<path d="M8.10192 7.27273V16H6.25675V9.02415H6.20561L4.20703 10.277V8.64062L6.36754 7.27273H8.10192ZM13.4318 16.1193C12.7756 16.1193 12.1918 16.0128 11.6804 15.7997C11.1719 15.5838 10.7727 15.2898 10.483 14.9176C10.1932 14.5455 10.0483 14.1236 10.0483 13.652C10.0483 13.2884 10.1307 12.9545 10.2955 12.6506C10.4631 12.3438 10.6903 12.0895 10.9773 11.8878C11.2642 11.6832 11.5852 11.5526 11.9403 11.4957V11.4361C11.4744 11.3423 11.0966 11.1165 10.8068 10.7585C10.517 10.3977 10.3722 9.97869 10.3722 9.50142C10.3722 9.04972 10.5043 8.64773 10.7685 8.29545C11.0327 7.94034 11.3949 7.66193 11.8551 7.46023C12.3182 7.25568 12.8438 7.15341 13.4318 7.15341C14.0199 7.15341 14.544 7.25568 15.0043 7.46023C15.4673 7.66477 15.831 7.9446 16.0952 8.29972C16.3594 8.65199 16.4929 9.05256 16.4957 9.50142C16.4929 9.98153 16.3452 10.4006 16.0526 10.7585C15.7599 11.1165 15.3849 11.3423 14.9276 11.4361V11.4957C15.277 11.5526 15.5938 11.6832 15.8778 11.8878C16.1648 12.0895 16.392 12.3438 16.5597 12.6506C16.7301 12.9545 16.8168 13.2884 16.8196 13.652C16.8168 14.1236 16.6705 14.5455 16.3807 14.9176C16.0909 15.2898 15.6903 15.5838 15.179 15.7997C14.6705 16.0128 14.0881 16.1193 13.4318 16.1193ZM13.4318 14.7642C13.7244 14.7642 13.9801 14.7116 14.1989 14.6065C14.4176 14.4986 14.5881 14.3509 14.7102 14.1634C14.8352 13.973 14.8977 13.7543 14.8977 13.5071C14.8977 13.2543 14.8338 13.0312 14.706 12.8381C14.5781 12.642 14.4048 12.4886 14.1861 12.3778C13.9673 12.2642 13.7159 12.2074 13.4318 12.2074C13.1506 12.2074 12.8991 12.2642 12.6776 12.3778C12.456 12.4886 12.2813 12.642 12.1534 12.8381C12.0284 13.0312 11.9659 13.2543 11.9659 13.5071C11.9659 13.7543 12.027 13.973 12.1491 14.1634C12.2713 14.3509 12.4432 14.4986 12.6648 14.6065C12.8864 14.7116 13.142 14.7642 13.4318 14.7642ZM13.4318 10.8651C13.6761 10.8651 13.8935 10.8153 14.0838 10.7159C14.2741 10.6165 14.4233 10.4787 14.5312 10.3026C14.6392 10.1264 14.6932 9.9233 14.6932 9.69318C14.6932 9.46591 14.6392 9.26705 14.5312 9.09659C14.4233 8.9233 14.2756 8.78835 14.0881 8.69176C13.9006 8.59233 13.6818 8.54261 13.4318 8.54261C13.1847 8.54261 12.9659 8.59233 12.7756 8.69176C12.5852 8.78835 12.4361 8.9233 12.3281 9.09659C12.223 9.26705 12.1705 9.46591 12.1705 9.69318C12.1705 9.9233 12.2244 10.1264 12.3324 10.3026C12.4403 10.4787 12.5895 10.6165 12.7798 10.7159C12.9702 10.8153 13.1875 10.8651 13.4318 10.8651Z" fill="white"/>
</svg>
