<svg width="120" height="21" viewBox="0 0 120 21" fill="none" xmlns="http://www.w3.org/2000/svg">
<path d="M8.288 20.324C5.75 20.324 3.815 19.748 2.483 18.596C1.151 17.426 0.485 15.707 0.485 13.439V7.661C0.485 5.393 1.151 3.683 2.483 2.531C3.815 1.361 5.75 0.776 8.288 0.776C10.052 0.776 11.492 1.073 12.608 1.667C13.742 2.243 14.642 3.116 15.308 4.286L12.581 6.176C12.023 5.312 11.438 4.691 10.826 4.313C10.232 3.935 9.386 3.746 8.288 3.746C6.902 3.746 5.885 4.079 5.237 4.745C4.607 5.393 4.292 6.365 4.292 7.661V13.439C4.292 14.735 4.607 15.716 5.237 16.382C5.885 17.03 6.902 17.354 8.288 17.354C9.476 17.354 10.394 17.156 11.042 16.76C11.708 16.346 12.302 15.689 12.824 14.789L15.524 16.787C14.948 17.615 14.354 18.281 13.742 18.785C13.13 19.289 12.383 19.676 11.501 19.946C10.637 20.198 9.566 20.324 8.288 20.324ZM18.4864 1.1H22.2934V20H18.4864V1.1ZM42.4232 1.1V15.545C42.4232 17.003 42.1262 18.11 41.5322 18.866C40.9382 19.622 39.9842 20 38.6702 20H35.9972L30.4352 7.121V20H26.8712V1.1H31.1642L38.0222 16.76H38.0762C38.3822 16.76 38.5892 16.634 38.6972 16.382C38.8052 16.112 38.8592 15.635 38.8592 14.951V1.1H42.4232ZM52.5583 20C50.1643 20 48.4453 19.496 47.4013 18.488C46.3573 17.48 45.8353 16.022 45.8353 14.114V6.986C45.8353 5.078 46.3573 3.62 47.4013 2.612C48.4453 1.604 50.1643 1.1 52.5583 1.1H58.8763V4.07H52.5583C51.5683 4.07 50.8303 4.304 50.3443 4.772C49.8763 5.24 49.6423 5.978 49.6423 6.986V9.065H57.6883V12.035H49.6423V14.114C49.6423 15.104 49.8763 15.842 50.3443 16.328C50.8303 16.796 51.5683 17.03 52.5583 17.03H58.9303V20H52.5583ZM76.8722 20.324C74.2982 20.324 72.3272 19.748 70.9592 18.596C69.6092 17.426 68.9342 15.707 68.9342 13.439V7.661C68.9342 5.393 69.6092 3.683 70.9592 2.531C72.3272 1.361 74.2982 0.776 76.8722 0.776C78.7262 0.776 80.2382 1.073 81.4082 1.667C82.5962 2.261 83.5322 3.143 84.2162 4.313L81.3272 6.284C80.7692 5.384 80.1752 4.736 79.5452 4.34C78.9152 3.944 78.0242 3.746 76.8722 3.746C75.4322 3.746 74.3792 4.079 73.7132 4.745C73.0652 5.393 72.7412 6.365 72.7412 7.661V13.439C72.7412 14.735 73.0652 15.716 73.7132 16.382C74.3792 17.03 75.4322 17.354 76.8722 17.354C78.1322 17.354 79.0862 17.147 79.7342 16.733C80.4002 16.301 80.7332 15.68 80.7332 14.87V14.033C80.7332 12.917 80.2202 12.359 79.1942 12.359H76.1162V9.389H80.2742C81.7142 9.389 82.7762 9.722 83.4602 10.388C84.1442 11.054 84.4862 12.089 84.4862 13.493V15.14C84.4862 16.76 83.8022 18.029 82.4342 18.947C81.0662 19.865 79.2122 20.324 76.8722 20.324ZM94.7416 20.351C92.2756 20.351 90.4126 19.829 89.1526 18.785C87.8926 17.723 87.2626 16.256 87.2626 14.384V1.1H91.0696V14.384C91.0696 16.382 92.2936 17.381 94.7416 17.381C97.1896 17.381 98.4136 16.382 98.4136 14.384V1.1H102.221V14.384C102.221 16.256 101.591 17.723 100.331 18.785C99.0706 19.829 97.2076 20.351 94.7416 20.351ZM112.071 20.324C110.775 20.324 109.686 20.18 108.804 19.892C107.94 19.604 107.211 19.208 106.617 18.704C106.023 18.2 105.411 17.525 104.781 16.679L107.346 14.546C108.084 15.572 108.795 16.301 109.479 16.733C110.181 17.147 111.045 17.354 112.071 17.354C113.493 17.354 114.528 17.147 115.176 16.733C115.824 16.319 116.148 15.653 116.148 14.735C116.148 14.267 115.995 13.889 115.689 13.601C115.383 13.295 114.852 13.016 114.096 12.764C113.358 12.512 112.251 12.233 110.775 11.927C109.047 11.567 107.76 10.928 106.914 10.01C106.086 9.074 105.672 7.832 105.672 6.284C105.672 5.168 105.951 4.196 106.509 3.368C107.085 2.54 107.895 1.901 108.939 1.451C109.983 1.001 111.198 0.776 112.584 0.776C114.384 0.776 115.815 1.046 116.877 1.586C117.939 2.108 118.803 2.882 119.469 3.908L116.958 5.96C116.4 5.402 115.932 4.979 115.554 4.691C115.194 4.385 114.78 4.151 114.312 3.989C113.844 3.827 113.268 3.746 112.584 3.746C111.558 3.746 110.784 3.971 110.262 4.421C109.74 4.871 109.479 5.519 109.479 6.365C109.479 7.157 109.812 7.742 110.478 8.12C111.144 8.48 111.999 8.777 113.043 9.011C114.591 9.335 115.824 9.668 116.742 10.01C117.66 10.352 118.425 10.901 119.037 11.657C119.649 12.413 119.955 13.448 119.955 14.762C119.955 16.634 119.298 18.029 117.984 18.947C116.688 19.865 114.717 20.324 112.071 20.324Z" fill="white"/>
</svg>
